<?xml version="1.0" encoding="UTF-8"?>
<svg width="387px" height="390px" viewBox="0 0 387 390" version="1.1" xmlns="http://www.w3.org/2000/svg" xmlns:xlink="http://www.w3.org/1999/xlink">
    <title>logo</title>
    <g id="Page-1" stroke="none" stroke-width="1" fill="none" fill-rule="evenodd">
        <g id="logo" transform="translate(3.3333, 3.5835)" fill="#131313" fill-rule="nonzero" stroke="#131313" stroke-width="4">
            <path d="M195.472533,309.062933 L195.472,271.973867 C206.568,276.6464 218.216533,280.2656 230.292267,282.705067 L230.292267,347.657067 C230.292267,367.0976 246.051733,382.857067 265.492267,382.857067 L281.370667,382.857067 C336.157333,382.857067 380.570667,338.443733 380.570667,283.657067 L380.570667,163.2 C380.570667,73.0672 307.503467,0 217.370667,0 L117.7008,0 C100.864,0 86.7877333,11.8213333 83.32,27.6165333 C65.8773333,20.9738667 46.5408,19.3834667 33.5274667,19.08 C13.8485333,18.6213333 0,34.9925333 0,52.8192 L0,223.7296 C0,290.298667 53.9648,344.262933 120.533333,344.262933 L160.272533,344.262933 C179.713067,344.262933 195.472533,328.503467 195.472533,309.062933 L195.472533,309.062933 Z M32.8810667,46.8044331 C49.1941333,47.1861333 69.3749333,49.8266667 82.5008,57.8922667 L82.5008,101.829867 C82.5008,167.2112 116.503467,224.6512 167.789333,257.4304 C167.755733,257.824533 167.738667,258.223467 167.738667,258.626133 L167.7392,309.062933 C167.7392,313.186667 164.396267,316.5296 160.272533,316.5296 L120.533333,316.5296 C69.2816,316.5296 27.7333333,274.981867 27.7333333,223.7296 L27.7333333,52.8192 C27.7333333,50.8490667 28.4773333,49.256 29.4490667,48.2378667 C30.3642667,47.2784 31.5002667,46.7738667 32.8810667,46.8044331 L32.8810667,46.8044331 Z M217.370667,27.7333333 C292.186667,27.7333333 352.837333,88.3834667 352.837333,163.2 L352.837333,283.657067 C352.837333,323.126933 320.840533,355.123733 281.370667,355.123733 L265.492267,355.123733 C261.368533,355.123733 258.0256,351.7808 258.0256,347.657067 L258.0256,286.3632 L295.218133,286.3632 C302.876267,286.3632 309.0848,280.154667 309.0848,272.496533 C309.0848,264.8384 302.876267,258.629867 295.218133,258.629867 L267.034133,258.629867 C180.436267,258.629867 110.234133,188.428267 110.234133,101.829867 L110.234133,35.2 C110.234133,31.0762667 113.577067,27.7333333 117.7008,27.7333333 Z M289.888,161.161067 C278.106133,161.161067 268.554667,170.712533 268.554667,182.4944 C268.554667,194.2768 278.106133,203.827733 289.888,203.827733 C301.669867,203.827733 311.221333,194.2768 311.221333,182.4944 C311.221333,170.712533 301.669867,161.161067 289.888,161.161067 Z" id="Shape"></path>
        </g>
    </g>
</svg>
